<svg xmlns="http://www.w3.org/2000/svg" width="65" height="65" viewBox="0 0 65 65">
  <g id="Group_3525" data-name="Group 3525" transform="translate(-15 -144)">
    <circle id="Ellipse_98" data-name="Ellipse 98" cx="32.5" cy="32.5" r="32.5" transform="translate(15 144)" fill="#999"/>
    <g id="user_1_" data-name="user (1)" transform="translate(34 160)">
      <path id="Path_26555" data-name="Path 26555" d="M94.826,15.589a7.542,7.542,0,0,0,5.511-2.284,7.542,7.542,0,0,0,2.283-5.511,7.543,7.543,0,0,0-2.284-5.511,7.793,7.793,0,0,0-11.022,0,7.542,7.542,0,0,0-2.284,5.511,7.542,7.542,0,0,0,2.284,5.511A7.544,7.544,0,0,0,94.826,15.589Zm0,0" transform="translate(-81.53 0)" fill="#141414"/>
      <path id="Path_26556" data-name="Path 26556" d="M26.934,256.569a19.254,19.254,0,0,0-.262-2.045,16.111,16.111,0,0,0-.5-2.056,10.155,10.155,0,0,0-.845-1.917,7.236,7.236,0,0,0-1.275-1.661,5.62,5.62,0,0,0-1.831-1.15,6.327,6.327,0,0,0-2.337-.423,2.372,2.372,0,0,0-1.267.537c-.38.248-.824.534-1.32.851a7.561,7.561,0,0,1-1.708.752,6.631,6.631,0,0,1-4.177,0A7.544,7.544,0,0,1,9.7,248.7c-.491-.314-.936-.6-1.321-.851a2.369,2.369,0,0,0-1.266-.537,6.319,6.319,0,0,0-2.337.423,5.615,5.615,0,0,0-1.831,1.15,7.237,7.237,0,0,0-1.274,1.661,10.176,10.176,0,0,0-.845,1.918,16.149,16.149,0,0,0-.5,2.056,19.185,19.185,0,0,0-.262,2.046c-.043.619-.065,1.262-.065,1.911a5.374,5.374,0,0,0,1.6,4.066,5.745,5.745,0,0,0,4.113,1.5H21.291a5.744,5.744,0,0,0,4.112-1.5,5.371,5.371,0,0,0,1.6-4.066c0-.652-.022-1.3-.065-1.912Zm0,0" transform="translate(0 -231.684)" fill="#141414"/>
    </g>
  </g>
</svg>
